<svg width="24" height="24" viewBox="0 0 24 24" xmlns="http://www.w3.org/2000/svg"><defs><radialGradient cx="38.236%" cy="10.579%" fx="38.236%" fy="10.579%" r="93.609%" id="a"><stop stop-color="#F03C00" stop-opacity="0" offset="0%"/><stop stop-color="#F03C00" stop-opacity="0" offset="72.663%"/><stop stop-color="#F03C00" offset="100%"/></radialGradient><radialGradient cx="88.2%" cy="11.315%" fx="88.2%" fy="11.315%" id="b"><stop stop-color="#9699C8" offset="0%"/><stop stop-color="#9599CA" stop-opacity="0" offset="100%"/></radialGradient><radialGradient cx="8.171%" cy="-6.535%" fx="8.171%" fy="-6.535%" r="63.588%" id="c"><stop stop-color="#9699C8" offset="0%"/><stop stop-color="#9599CA" stop-opacity="0" offset="100%"/></radialGradient><linearGradient x1="50%" y1="5.529%" x2="50%" y2="95.681%" id="d"><stop stop-color="#C7DEF3" offset="0%"/><stop stop-color="#C0D7EE" offset="100%"/></linearGradient><radialGradient cx="88.2%" cy="11.315%" fx="88.2%" fy="11.315%" id="e"><stop stop-color="#839DC7" offset="0%"/><stop stop-color="#6D93CA" stop-opacity="0" offset="100%"/></radialGradient><radialGradient cx="16.215%" cy=".134%" fx="16.215%" fy=".134%" id="f"><stop stop-color="#839DC7" offset="0%"/><stop stop-color="#6D93CA" stop-opacity="0" offset="100%"/></radialGradient><linearGradient x1="50%" y1="5.529%" x2="50%" y2="121.322%" id="g"><stop stop-color="#C7DEF3" offset="0%"/><stop stop-color="#C0D7EE" offset="100%"/></linearGradient></defs><g fill="none" fill-rule="evenodd"><path d="M7.508 1.367a4.689 4.689 0 1 1-6.141 6.141 4.688 4.688 0 0 0 6.142-6.142z" fill="#FFC400"/><circle fill="url(#a)" opacity=".3" cx="5.688" cy="5.688" r="4.688"/><path d="M12.5 18.6v3.8M14.145 19.55l-3.29 1.9 3.29-1.9zM10.855 19.55l3.29 1.9-3.29-1.9z" stroke="#84C5DB" stroke-width="1.25" stroke-linecap="round" stroke-linejoin="round"/><circle fill="url(#b)" opacity=".2" cx="8" cy="13" r="4"/><circle fill="url(#c)" opacity=".2" cx="18.5" cy="14.5" r="2.5"/><path d="M8 17a4 4 0 1 1 1.196-7.818 4.502 4.502 0 0 1 8.751 2.008A3 3 0 1 1 19 17H8z" fill="url(#d)"/><circle fill="url(#e)" opacity=".2" cx="8" cy="13" r="4"/><circle fill="url(#f)" opacity=".2" cx="19" cy="14" r="3"/><circle fill="url(#g)" cx="13.5" cy="10.5" r="4.5"/></g></svg>
